<svg xmlns="http://www.w3.org/2000/svg" width="680" height="1044" viewBox="0 0 680 1044">
<style>text{font-family:Consolas,"Courier New",monospace;}.ann{font-family:system-ui,sans-serif;}</style>
<rect width="680" height="1044" fill="#1e1e2e"/>
<rect width="680" height="34" fill="#252540"/>
<text x="14" y="21" dominant-baseline="central" font-size="13" font-weight="600" fill="#c8c8e0" font-family="system-ui,sans-serif">Package Explorer</text>
<text x="666" y="21" text-anchor="end" dominant-baseline="central" font-size="11" fill="#888" font-family="system-ui,sans-serif">AI-complaint-classifier</text>
<line x1="0" y1="34" x2="680" y2="34" stroke="#383858" stroke-width="1"/>
<rect x="0" y="44" width="680" height="17" fill="#1e1e2e"/>
<rect x="10" y="48" width="9" height="7" rx="1" fill="#F5C842" opacity="0.85"/>
<text x="21" y="52" dominant-baseline="central" font-size="12" fill="#c8c8e0">AI-complaint-classifier</text>
<rect x="0" y="61" width="680" height="17" fill="#212135"/>
<rect x="26" y="65" width="9" height="7" rx="1" fill="#F5C842" opacity="0.85"/>
<text x="37" y="69" dominant-baseline="central" font-size="12" fill="#c8c8e0">src/main</text>
<rect x="0" y="78" width="680" height="17" fill="#1e1e2e"/>
<rect x="42" y="82" width="9" height="7" rx="1" fill="#F5C842" opacity="0.85"/>
<text x="53" y="86" dominant-baseline="central" font-size="12" fill="#c8c8e0">java</text>
<rect x="0" y="95" width="680" height="17" fill="#212135"/>
<rect x="58" y="99" width="8" height="8" rx="1.5" fill="#5B88D4"/>
<text x="69" y="103" dominant-baseline="central" font-size="12" fill="#d4d4e8">com.bouguern.demo</text>
<rect x="0" y="112" width="680" height="17" fill="#1e1e2e"/>
<rect x="74" y="116" width="8" height="8" rx="1.5" fill="#E85D30"/>
<text x="85" y="120" dominant-baseline="central" font-size="12" fill="#c8d8f8">ClassifierApplication.java</text>
<text x="281" y="120" dominant-baseline="central" class="ann" font-size="10" fill="#5a8a5a">@SpringBootApplication</text>
<rect x="0" y="129" width="680" height="17" fill="#212135"/>
<rect x="74" y="133" width="9" height="7" rx="1" fill="#F5C842" opacity="0.85"/>
<text x="85" y="137" dominant-baseline="central" font-size="12" fill="#c8c8e0">api</text>
<rect x="0" y="146" width="680" height="17" fill="#1e1e2e"/>
<rect x="90" y="150" width="8" height="8" rx="1.5" fill="#5B88D4"/>
<text x="101" y="154" dominant-baseline="central" font-size="12" fill="#c8d8f8">ClassifierController.java</text>
<text x="290" y="154" dominant-baseline="central" class="ann" font-size="10" fill="#5a8a5a">@RestController</text>
<rect x="0" y="163" width="680" height="17" fill="#212135"/>
<rect x="90" y="167" width="8" height="8" rx="1.5" fill="#5B88D4"/>
<text x="101" y="171" dominant-baseline="central" font-size="12" fill="#c8d8f8">GlobalExceptionHandler.java</text>
<text x="304" y="171" dominant-baseline="central" class="ann" font-size="10" fill="#5a8a5a">@RestControllerAdvice</text>
<rect x="0" y="180" width="680" height="17" fill="#1e1e2e"/>
<rect x="74" y="184" width="9" height="7" rx="1" fill="#F5C842" opacity="0.85"/>
<text x="85" y="188" dominant-baseline="central" font-size="12" fill="#c8c8e0">classifier</text>
<rect x="0" y="197" width="680" height="17" fill="#212135"/>
<rect x="90" y="201" width="8" height="8" rx="1.5" fill="#5B88D4"/>
<text x="101" y="205" dominant-baseline="central" font-size="12" fill="#c8d8f8">ClassificationException.java</text>
<text x="311" y="205" dominant-baseline="central" class="ann" font-size="10" fill="#666680">RuntimeException</text>
<rect x="0" y="214" width="680" height="17" fill="#1e1e2e"/>
<rect x="90" y="218" width="8" height="8" rx="1.5" fill="#5B88D4"/>
<text x="101" y="222" dominant-baseline="central" font-size="12" fill="#c8d8f8">ClassificationResponse.java</text>
<text x="304" y="222" dominant-baseline="central" class="ann" font-size="10" fill="#666680">record</text>
<rect x="0" y="231" width="680" height="17" fill="#212135"/>
<rect x="90" y="235" width="8" height="8" rx="1.5" fill="#5B88D4"/>
<text x="101" y="239" dominant-baseline="central" font-size="12" fill="#c8d8f8">ClassificationResult.java</text>
<text x="290" y="239" dominant-baseline="central" class="ann" font-size="10" fill="#666680">record</text>
<rect x="0" y="248" width="680" height="17" fill="#1e1e2e"/>
<rect x="90" y="252" width="8" height="8" rx="1.5" fill="#5B88D4"/>
<text x="101" y="256" dominant-baseline="central" font-size="12" fill="#c8d8f8">ClassifierService.java</text>
<text x="269" y="256" dominant-baseline="central" class="ann" font-size="10" fill="#5a8a5a">@Service</text>
<rect x="0" y="265" width="680" height="17" fill="#212135"/>
<rect x="90" y="269" width="8" height="8" rx="1.5" fill="#5B88D4"/>
<text x="101" y="273" dominant-baseline="central" font-size="12" fill="#c8d8f8">ComplaintClassifier.java</text>
<text x="283" y="273" dominant-baseline="central" class="ann" font-size="10" fill="#5a8a5a">@Component</text>
<rect x="0" y="282" width="680" height="17" fill="#1e1e2e"/>
<rect x="90" y="286" width="8" height="8" rx="1.5" fill="#5B88D4"/>
<text x="101" y="290" dominant-baseline="central" font-size="12" fill="#c8d8f8">ComplaintRequest.java</text>
<text x="262" y="290" dominant-baseline="central" class="ann" font-size="10" fill="#666680">record</text>
<rect x="0" y="299" width="680" height="17" fill="#212135"/>
<rect x="74" y="303" width="9" height="7" rx="1" fill="#F5C842" opacity="0.85"/>
<text x="85" y="307" dominant-baseline="central" font-size="12" fill="#c8c8e0">config</text>
<rect x="0" y="316" width="680" height="17" fill="#1e1e2e"/>
<rect x="90" y="320" width="8" height="8" rx="1.5" fill="#5B88D4"/>
<text x="101" y="324" dominant-baseline="central" font-size="12" fill="#c8d8f8">AiConfig.java</text>
<text x="206" y="324" dominant-baseline="central" class="ann" font-size="10" fill="#5a8a5a">@Configuration</text>
<rect x="0" y="333" width="680" height="17" fill="#212135"/>
<rect x="74" y="337" width="9" height="7" rx="1" fill="#F5C842" opacity="0.85"/>
<text x="85" y="341" dominant-baseline="central" font-size="12" fill="#c8c8e0">domain</text>
<rect x="0" y="350" width="680" height="17" fill="#1e1e2e"/>
<rect x="90" y="354" width="9" height="7" rx="1" fill="#F5C842" opacity="0.85"/>
<text x="101" y="358" dominant-baseline="central" font-size="12" fill="#c8c8e0">entity</text>
<rect x="0" y="367" width="680" height="17" fill="#212135"/>
<rect x="106" y="371" width="8" height="8" rx="1.5" fill="#5B88D4"/>
<text x="117" y="375" dominant-baseline="central" font-size="12" fill="#c8d8f8">ClassificationRecord.java</text>
<text x="306" y="375" dominant-baseline="central" class="ann" font-size="10" fill="#5a8a5a">@Entity</text>
<rect x="0" y="384" width="680" height="17" fill="#1e1e2e"/>
<rect x="106" y="388" width="8" height="8" rx="1.5" fill="#5B88D4"/>
<text x="117" y="392" dominant-baseline="central" font-size="12" fill="#c8d8f8">Complaint.java</text>
<text x="229" y="392" dominant-baseline="central" class="ann" font-size="10" fill="#5a8a5a">@Entity</text>
<rect x="0" y="401" width="680" height="17" fill="#212135"/>
<rect x="106" y="405" width="8" height="8" rx="1.5" fill="#5B88D4"/>
<text x="117" y="409" dominant-baseline="central" font-size="12" fill="#c8d8f8">EvalRun.java</text>
<text x="215" y="409" dominant-baseline="central" class="ann" font-size="10" fill="#5a8a5a">@Entity</text>
<rect x="0" y="418" width="680" height="17" fill="#1e1e2e"/>
<rect x="90" y="422" width="9" height="7" rx="1" fill="#F5C842" opacity="0.85"/>
<text x="101" y="426" dominant-baseline="central" font-size="12" fill="#c8c8e0">enums</text>
<rect x="0" y="435" width="680" height="17" fill="#212135"/>
<rect x="106" y="439" width="8" height="8" rx="1.5" fill="#9B59B6"/>
<text x="117" y="443" dominant-baseline="central" font-size="12" fill="#c8d8f8">ComplaintCategory.java</text>
<text x="285" y="443" dominant-baseline="central" class="ann" font-size="10" fill="#666680">enum</text>
<rect x="0" y="452" width="680" height="17" fill="#1e1e2e"/>
<rect x="106" y="456" width="8" height="8" rx="1.5" fill="#9B59B6"/>
<text x="117" y="460" dominant-baseline="central" font-size="12" fill="#c8d8f8">ComplaintStatus.java</text>
<text x="271" y="460" dominant-baseline="central" class="ann" font-size="10" fill="#666680">enum</text>
<rect x="0" y="469" width="680" height="17" fill="#212135"/>
<rect x="106" y="473" width="8" height="8" rx="1.5" fill="#9B59B6"/>
<text x="117" y="477" dominant-baseline="central" font-size="12" fill="#c8d8f8">UrgencyLevel.java</text>
<text x="250" y="477" dominant-baseline="central" class="ann" font-size="10" fill="#666680">enum</text>
<rect x="0" y="486" width="680" height="17" fill="#1e1e2e"/>
<rect x="90" y="490" width="9" height="7" rx="1" fill="#F5C842" opacity="0.85"/>
<text x="101" y="494" dominant-baseline="central" font-size="12" fill="#c8c8e0">repository</text>
<rect x="0" y="503" width="680" height="17" fill="#212135"/>
<rect x="106" y="507" width="8" height="8" rx="1.5" fill="#4DA870"/>
<text x="117" y="511" dominant-baseline="central" font-size="12" fill="#c8d8f8">ClassificationRepository.java</text>
<text x="334" y="511" dominant-baseline="central" class="ann" font-size="10" fill="#5a8a5a">JpaRepository</text>
<rect x="0" y="520" width="680" height="17" fill="#1e1e2e"/>
<rect x="106" y="524" width="8" height="8" rx="1.5" fill="#4DA870"/>
<text x="117" y="528" dominant-baseline="central" font-size="12" fill="#c8d8f8">ComplaintRepository.java</text>
<text x="299" y="528" dominant-baseline="central" class="ann" font-size="10" fill="#5a8a5a">JpaRepository</text>
<rect x="0" y="537" width="680" height="17" fill="#212135"/>
<rect x="106" y="541" width="8" height="8" rx="1.5" fill="#4DA870"/>
<text x="117" y="545" dominant-baseline="central" font-size="12" fill="#c8d8f8">EvalRunRepository.java</text>
<text x="285" y="545" dominant-baseline="central" class="ann" font-size="10" fill="#5a8a5a">JpaRepository</text>
<rect x="0" y="554" width="680" height="17" fill="#1e1e2e"/>
<rect x="42" y="558" width="9" height="7" rx="1" fill="#F5C842" opacity="0.85"/>
<text x="53" y="562" dominant-baseline="central" font-size="12" fill="#c8c8e0">resources</text>
<rect x="0" y="571" width="680" height="17" fill="#212135"/>
<rect x="58" y="575" width="8" height="8" rx="1.5" fill="#16A085"/>
<text x="69" y="579" dominant-baseline="central" font-size="12" fill="#90e0c8">application.yml</text>
<text x="188" y="579" dominant-baseline="central" class="ann" font-size="10" fill="#666680">datasource · groq · flyway · app config</text>
<rect x="0" y="588" width="680" height="17" fill="#1e1e2e"/>
<rect x="58" y="592" width="9" height="7" rx="1" fill="#F5C842" opacity="0.85"/>
<text x="69" y="596" dominant-baseline="central" font-size="12" fill="#c8c8e0">db/migration</text>
<rect x="0" y="605" width="680" height="17" fill="#212135"/>
<rect x="74" y="609" width="8" height="8" rx="1.5" fill="#E67E22"/>
<text x="85" y="613" dominant-baseline="central" font-size="12" fill="#f4c090">V1__create_complaints.sql</text>
<rect x="0" y="622" width="680" height="17" fill="#1e1e2e"/>
<rect x="74" y="626" width="8" height="8" rx="1.5" fill="#E67E22"/>
<text x="85" y="630" dominant-baseline="central" font-size="12" fill="#f4c090">V2__create_classification_records.sql</text>
<rect x="0" y="639" width="680" height="17" fill="#212135"/>
<rect x="74" y="643" width="8" height="8" rx="1.5" fill="#E67E22"/>
<text x="85" y="647" dominant-baseline="central" font-size="12" fill="#f4c090">V3__create_eval_runs.sql</text>
<rect x="0" y="656" width="680" height="17" fill="#1e1e2e"/>
<rect x="58" y="660" width="9" height="7" rx="1" fill="#F5C842" opacity="0.85"/>
<text x="69" y="664" dominant-baseline="central" font-size="12" fill="#c8c8e0">prompts</text>
<rect x="0" y="673" width="680" height="17" fill="#212135"/>
<rect x="74" y="677" width="8" height="8" rx="1.5" fill="#888888"/>
<text x="85" y="681" dominant-baseline="central" font-size="12" fill="#b0b0b0">classifier-prompt.txt</text>
<text x="246" y="681" dominant-baseline="central" class="ann" font-size="10" fill="#666680">v1 / v2 / v3</text>
<rect x="0" y="690" width="680" height="17" fill="#1e1e2e"/>
<rect x="26" y="694" width="9" height="7" rx="1" fill="#F5C842" opacity="0.85"/>
<text x="37" y="698" dominant-baseline="central" font-size="12" fill="#c8c8e0">src/test</text>
<rect x="0" y="707" width="680" height="17" fill="#212135"/>
<rect x="42" y="711" width="9" height="7" rx="1" fill="#F5C842" opacity="0.85"/>
<text x="53" y="715" dominant-baseline="central" font-size="12" fill="#c8c8e0">java</text>
<rect x="0" y="724" width="680" height="17" fill="#1e1e2e"/>
<rect x="58" y="728" width="8" height="8" rx="1.5" fill="#5B88D4"/>
<text x="69" y="732" dominant-baseline="central" font-size="12" fill="#d4d4e8">com.bouguern.demo.eval</text>
<rect x="0" y="741" width="680" height="17" fill="#212135"/>
<rect x="74" y="745" width="8" height="8" rx="1.5" fill="#E85D30"/>
<text x="85" y="749" dominant-baseline="central" font-size="12" fill="#c8d8f8">EvalRunnerTest.java</text>
<text x="232" y="749" dominant-baseline="central" class="ann" font-size="10" fill="#5a8a5a">@Tag(eval) @SpringBootTest</text>
<rect x="0" y="758" width="680" height="17" fill="#1e1e2e"/>
<rect x="74" y="762" width="9" height="7" rx="1" fill="#F5C842" opacity="0.85"/>
<text x="85" y="766" dominant-baseline="central" font-size="12" fill="#c8c8e0">checks</text>
<rect x="0" y="775" width="680" height="17" fill="#212135"/>
<rect x="90" y="779" width="8" height="8" rx="1.5" fill="#5B88D4"/>
<text x="101" y="783" dominant-baseline="central" font-size="12" fill="#c8d8f8">RegressionScorer.java</text>
<rect x="0" y="792" width="680" height="17" fill="#1e1e2e"/>
<rect x="90" y="796" width="8" height="8" rx="1.5" fill="#5B88D4"/>
<text x="101" y="800" dominant-baseline="central" font-size="12" fill="#c8d8f8">SemanticCheck.java</text>
<text x="241" y="800" dominant-baseline="central" class="ann" font-size="10" fill="#666680">LLM-as-judge</text>
<rect x="0" y="809" width="680" height="17" fill="#212135"/>
<rect x="90" y="813" width="8" height="8" rx="1.5" fill="#5B88D4"/>
<text x="101" y="817" dominant-baseline="central" font-size="12" fill="#c8d8f8">StructuralCheck.java</text>
<rect x="0" y="826" width="680" height="17" fill="#1e1e2e"/>
<rect x="74" y="830" width="9" height="7" rx="1" fill="#F5C842" opacity="0.85"/>
<text x="85" y="834" dominant-baseline="central" font-size="12" fill="#c8c8e0">dataset</text>
<rect x="0" y="843" width="680" height="17" fill="#212135"/>
<rect x="90" y="847" width="8" height="8" rx="1.5" fill="#5B88D4"/>
<text x="101" y="851" dominant-baseline="central" font-size="12" fill="#c8d8f8">EvalCase.java</text>
<text x="206" y="851" dominant-baseline="central" class="ann" font-size="10" fill="#666680">record</text>
<rect x="0" y="860" width="680" height="17" fill="#1e1e2e"/>
<rect x="90" y="864" width="8" height="8" rx="1.5" fill="#5B88D4"/>
<text x="101" y="868" dominant-baseline="central" font-size="12" fill="#c8d8f8">EvalDatasetLoader.java</text>
<rect x="0" y="877" width="680" height="17" fill="#212135"/>
<rect x="42" y="881" width="9" height="7" rx="1" fill="#F5C842" opacity="0.85"/>
<text x="53" y="885" dominant-baseline="central" font-size="12" fill="#c8c8e0">resources</text>
<rect x="0" y="894" width="680" height="17" fill="#1e1e2e"/>
<rect x="58" y="898" width="8" height="8" rx="1.5" fill="#16A085"/>
<text x="69" y="902" dominant-baseline="central" font-size="12" fill="#90e0c8">application.yml</text>
<text x="188" y="902" dominant-baseline="central" class="ann" font-size="10" fill="#666680">DB credentials · Groq key · test config</text>
<rect x="0" y="911" width="680" height="17" fill="#212135"/>
<rect x="58" y="915" width="9" height="7" rx="1" fill="#F5C842" opacity="0.85"/>
<text x="69" y="919" dominant-baseline="central" font-size="12" fill="#c8c8e0">eval</text>
<rect x="0" y="928" width="680" height="17" fill="#1e1e2e"/>
<rect x="74" y="932" width="8" height="8" rx="1.5" fill="#E74C3C"/>
<text x="85" y="936" dominant-baseline="central" font-size="12" fill="#f08080">golden-dataset.json</text>
<text x="232" y="936" dominant-baseline="central" class="ann" font-size="10" fill="#666680">20 labeled cases</text>
<rect x="0" y="945" width="680" height="17" fill="#212135"/>
<rect x="26" y="949" width="8" height="8" rx="1.5" fill="#2196F3"/>
<text x="37" y="953" dominant-baseline="central" font-size="12" fill="#80c0f8">docker-compose.yml</text>
<text x="177" y="953" dominant-baseline="central" class="ann" font-size="10" fill="#666680">PostgreSQL 16-alpine</text>
<rect x="0" y="962" width="680" height="17" fill="#1e1e2e"/>
<rect x="26" y="966" width="8" height="8" rx="1.5" fill="#E67E22"/>
<text x="37" y="970" dominant-baseline="central" font-size="12" fill="#f4c090">pom.xml</text>
<text x="100" y="970" dominant-baseline="central" class="ann" font-size="10" fill="#666680">Spring Boot 3.4.5 · Spring AI 1.0.0</text>
<rect x="0" y="979" width="680" height="17" fill="#212135"/>
<rect x="26" y="983" width="8" height="8" rx="1.5" fill="#888888"/>
<text x="37" y="987" dominant-baseline="central" font-size="12" fill="#b0b0b0">.env.example</text>
<text x="135" y="987" dominant-baseline="central" class="ann" font-size="10" fill="#666680">GROQ_API_KEY · DB credentials</text>
<line x1="0" y1="1012" x2="680" y2="1012" stroke="#383858" stroke-width="0.5"/>
<rect x="14" y="1019" width="8" height="8" rx="1" fill="#5B88D4"/>
<text x="25" y="1023" dominant-baseline="central" font-size="10" font-family="system-ui,sans-serif" fill="#888">Java class</text>
<rect x="118" y="1019" width="8" height="8" rx="1" fill="#9B59B6"/>
<text x="129" y="1023" dominant-baseline="central" font-size="10" font-family="system-ui,sans-serif" fill="#888">Enum</text>
<rect x="222" y="1019" width="8" height="8" rx="1" fill="#4DA870"/>
<text x="233" y="1023" dominant-baseline="central" font-size="10" font-family="system-ui,sans-serif" fill="#888">Interface</text>
<rect x="326" y="1019" width="8" height="8" rx="1" fill="#E67E22"/>
<text x="337" y="1023" dominant-baseline="central" font-size="10" font-family="system-ui,sans-serif" fill="#888">SQL/XML</text>
<rect x="430" y="1019" width="8" height="8" rx="1" fill="#16A085"/>
<text x="441" y="1023" dominant-baseline="central" font-size="10" font-family="system-ui,sans-serif" fill="#888">YAML</text>
<rect x="534" y="1019" width="8" height="8" rx="1" fill="#E74C3C"/>
<text x="545" y="1023" dominant-baseline="central" font-size="10" font-family="system-ui,sans-serif" fill="#888">JSON</text>
<text x="666" y="1023" text-anchor="end" dominant-baseline="central" font-size="10" font-family="system-ui,sans-serif" fill="#555">Mohamed Bouguern</text>
</svg>